<?xml version="1.0" encoding="utf-8"?>
<!-- Generator: Adobe Illustrator 16.0.0, SVG Export Plug-In . SVG Version: 6.00 Build 0)  -->
<!DOCTYPE svg PUBLIC "-//W3C//DTD SVG 1.1//EN" "http://www.w3.org/Graphics/SVG/1.1/DTD/svg11.dtd">
<svg version="1.1" id="Capa_1" xmlns="http://www.w3.org/2000/svg" x="0px" y="0px"
     width="160.667px" height="156px" viewBox="0 0 160.667 156" enable-background="new 0 0 160.667 156"
     xml:space="preserve">
<path fill-rule="evenodd" clip-rule="evenodd" fill="#181713" d="M80.063,99.764c23.469,0,42.718,4.174,44.792,9.493
	c-8.3-3.388-25.233-5.701-44.792-5.701c-19.558,0-36.492,2.313-44.792,5.701C37.346,103.938,56.594,99.764,80.063,99.764
	L80.063,99.764z"/>
<g>
	<path fill-rule="evenodd" clip-rule="evenodd" fill="#181713" d="M101.626,70.49c6.559-2.242,12.26-4.508,1.741-3.077
		c-4.441,0.604-7.851,1.287-10.5,1.326c2.303-0.813,3.964-3.001,3.964-5.596c0-3.292-2.671-5.963-5.938-5.963
		c-2.789,0-5.127,1.921-5.777,4.51c-0.253-1.009-0.48-2.146-0.686-3.437c-1.455-9.111-2.982-17.625-3.315-1.884
		c-0.382,17.912-2.17,19.01,5.271,35.275c4.293,9.35,4.675,8.609,5.08,3.22c0.597-7.919,1.598-8.896,3.96-6.559
		c8.562,8.539,11.901,12.617,2.886-3.077C93.755,77.335,91.06,74.139,101.626,70.49z"/>
	<path fill-rule="evenodd" clip-rule="evenodd" fill="#181713" d="M74.627,58.254c-0.21,1.306-0.443,2.454-0.702,3.472
		c-0.638-2.606-2.98-4.545-5.763-4.545c-3.29,0-5.963,2.671-5.963,5.963c0,2.595,1.663,4.782,3.977,5.596
		c-2.651-0.037-6.063-0.723-10.511-1.326c-10.494-1.431-4.818,0.835,1.741,3.077c10.59,3.648,7.895,6.845,3.339,14.739
		c-9.039,15.694-5.701,11.616,2.886,3.077c2.338-2.338,3.34-1.36,3.936,6.559c0.405,5.39,0.787,6.13,5.08-3.22
		C80.112,75.38,78.3,74.282,77.918,56.37C77.584,40.629,76.081,49.143,74.627,58.254z"/>
</g>
<polyline fill="none" stroke="#B0B0AF" stroke-width="0.25" stroke-miterlimit="10" points="47.984,49.263 48.413,32.841 
	58.17,42.656 64.121,32.149 62.713,50.329 74.029,43.586 79.719,33.975 78.387,22.232 87.971,29.765 101.963,25.868 87.971,38.708 
	100.09,39.71 90.392,50.329 102.496,52.685 111.108,44.73 "/>
<line fill="none" stroke="#B0B0AF" stroke-width="0.25" stroke-miterlimit="10" x1="66.302" y1="28.679" x2="75.104" y2="44.73"/>
<polyline fill="none" stroke="#B0B0AF" stroke-width="0.25" stroke-miterlimit="10" points="87.495,32.841 87.495,38.708 
	76.215,43.061 "/>
<polyline fill="none" stroke="#B0B0AF" stroke-width="0.25" stroke-miterlimit="10" points="113.612,42.656 104.365,28.679 
	100.097,37.951 "/>
<g>
	<path fill-rule="evenodd" clip-rule="evenodd" fill="#63AEB6" d="M101.22,20.546c3.435,0,6.226,2.79,6.226,6.226
		c0,3.435-2.791,6.225-6.226,6.225c-3.458,0-6.249-2.79-6.249-6.225C94.971,23.336,97.762,20.546,101.22,20.546L101.22,20.546z"/>
	<path fill-rule="evenodd" clip-rule="evenodd" fill="#6F3A88" d="M111.69,38.888c3.388,0,6.13,2.742,6.13,6.13
		c0,3.386-2.742,6.13-6.13,6.13c-3.363,0-6.105-2.744-6.105-6.13C105.585,41.63,108.327,38.888,111.69,38.888L111.69,38.888z"/>
	<path fill-rule="evenodd" clip-rule="evenodd" fill="#63AEB6" d="M64.872,22.717c3.887,0,7.035,3.172,7.035,7.06
		s-3.148,7.036-7.035,7.036c-3.889,0-7.061-3.148-7.061-7.036S60.983,22.717,64.872,22.717L64.872,22.717z"/>
	<path fill-rule="evenodd" clip-rule="evenodd" fill="#B84429" d="M47.984,46.854c2.504,0,4.508,2.027,4.508,4.508
		c0,2.481-2.004,4.508-4.508,4.508c-2.48,0-4.508-2.026-4.508-4.508C43.477,48.881,45.504,46.854,47.984,46.854L47.984,46.854z"/>
	<path fill-rule="evenodd" clip-rule="evenodd" fill="#DEA1BB" d="M58.169,40.581c1.145,0,2.075,0.93,2.075,2.075
		c0,1.145-0.931,2.074-2.075,2.074s-2.074-0.93-2.074-2.074C56.095,41.511,57.024,40.581,58.169,40.581L58.169,40.581z"/>
	<path fill-rule="evenodd" clip-rule="evenodd" fill="#6F3A88" d="M87.959,36.288c1.336,0,2.433,1.073,2.433,2.409
		c0,1.358-1.097,2.432-2.433,2.432c-1.335,0-2.408-1.073-2.408-2.432C85.551,37.361,86.624,36.288,87.959,36.288L87.959,36.288z"/>
	<path fill-rule="evenodd" clip-rule="evenodd" fill="#CA6922" d="M90.058,45.113c2.29,0,4.15,1.859,4.15,4.149
		c0,2.289-1.86,4.15-4.15,4.15c-2.313,0-4.174-1.861-4.174-4.15C85.884,46.973,87.744,45.113,90.058,45.113L90.058,45.113z"/>
	<path fill-rule="evenodd" clip-rule="evenodd" fill="#6F3A88" d="M79.73,15.729c2.552,0,4.603,2.074,4.603,4.627
		c0,2.552-2.051,4.603-4.603,4.603s-4.627-2.051-4.627-4.603C75.104,17.803,77.179,15.729,79.73,15.729L79.73,15.729z"/>
	<path fill-rule="evenodd" clip-rule="evenodd" fill="#92B73A" d="M74.03,39.889c2.051,0,3.696,1.67,3.696,3.697
		c0,2.051-1.646,3.697-3.696,3.697c-2.028,0-3.697-1.646-3.697-3.697C70.333,41.559,72.002,39.889,74.03,39.889L74.03,39.889z"/>
	<path fill-rule="evenodd" clip-rule="evenodd" fill="#CA6922" d="M88.245,26.724c2.099,0,3.816,1.717,3.816,3.815
		c0,2.1-1.718,3.817-3.816,3.817s-3.815-1.718-3.815-3.817C84.43,28.44,86.146,26.724,88.245,26.724L88.245,26.724z"/>
	<path fill-rule="evenodd" clip-rule="evenodd" fill="#DEA1BB" d="M99.503,36.359c1.86,0,3.363,1.503,3.363,3.363
		c0,1.836-1.503,3.338-3.363,3.338c-1.837,0-3.339-1.502-3.339-3.338C96.164,37.862,97.666,36.359,99.503,36.359L99.503,36.359z"/>
	<path fill-rule="evenodd" clip-rule="evenodd" fill="#EAB936" d="M62.725,47.235c1.956,0,3.577,1.598,3.577,3.577
		s-1.621,3.578-3.577,3.578c-1.979,0-3.602-1.599-3.602-3.578S60.745,47.235,62.725,47.235L62.725,47.235z"/>
	<path fill-rule="evenodd" clip-rule="evenodd" fill="#EAB936" d="M102.484,49.334c1.86,0,3.363,1.503,3.363,3.363
		c0,1.836-1.503,3.339-3.363,3.339c-1.836,0-3.339-1.503-3.339-3.339C99.146,50.837,100.648,49.334,102.484,49.334L102.484,49.334z"
		/>
	<path fill-rule="evenodd" clip-rule="evenodd" fill="#92B73A" d="M48.771,28.679c2.313,0,4.174,1.86,4.174,4.175
		c0,2.29-1.86,4.149-4.174,4.149c-2.289,0-4.149-1.859-4.149-4.149C44.622,30.539,46.482,28.679,48.771,28.679L48.771,28.679z"/>
	<path fill-rule="evenodd" clip-rule="evenodd" fill="#EAB936" d="M79.611,31.542c1.336,0,2.409,1.097,2.409,2.432
		c0,1.336-1.073,2.434-2.409,2.434s-2.433-1.098-2.433-2.434C77.179,32.639,78.275,31.542,79.611,31.542L79.611,31.542z"/>
</g>
<g>
	<path fill="#222220" d="M22.79,134.091c-1.27,1.429-2.693,2.144-4.272,2.144c-3.215,0-4.822-1.751-4.822-5.256v-9.305h2.561v9.172
		c0,0.595,0.048,1.099,0.148,1.51c0.099,0.413,0.256,0.75,0.469,1.013c0.213,0.264,0.485,0.454,0.819,0.574
		c0.332,0.118,0.731,0.178,1.198,0.178c1.419,0,2.719-0.759,3.899-2.277v-10.169h2.518v14.218H22.79V134.091z"/>
	<path fill="#222220" d="M31.56,123.475c0.626-0.725,1.296-1.266,2.011-1.623s1.458-0.535,2.233-0.535
		c3.216,0,4.823,1.757,4.823,5.271v9.305h-2.545v-9.187c0-0.585-0.05-1.086-0.15-1.503c-0.099-0.417-0.256-0.757-0.469-1.02
		s-0.485-0.455-0.818-0.573c-0.333-0.119-0.731-0.179-1.199-0.179c-1.29,0-2.585,0.755-3.886,2.262v10.199h-2.516v-14.218h2.516
		V123.475z"/>
	<path fill="#222220" d="M46.835,135.892H44.32v-14.218h2.515V135.892z"/>
	<path fill="#FF6633" d="M66.272,120.161c-0.117-0.593-0.325-1.12-0.626-1.583c-0.302-0.463-0.673-0.854-1.112-1.174
		c-0.44-0.318-0.945-0.562-1.513-0.73c-0.567-0.166-1.171-0.251-1.809-0.251c-0.985,0-1.871,0.174-2.66,0.521
		c-0.787,0.348-1.46,0.857-2.017,1.529c-0.556,0.672-0.984,1.504-1.285,2.495c-0.303,0.99-0.453,2.135-0.453,3.434
		c0,1.285,0.15,2.427,0.453,3.424c0.301,0.997,0.729,1.84,1.285,2.529c0.557,0.69,1.227,1.212,2.009,1.564
		c0.782,0.354,1.654,0.53,2.617,0.53c1.378,0,2.52-0.356,3.424-1.069c0.903-0.712,1.471-1.747,1.703-3.103h4.397
		c-0.161,1.286-0.512,2.425-1.052,3.415c-0.538,0.992-1.222,1.826-2.051,2.504c-0.829,0.679-1.784,1.191-2.867,1.539
		c-1.085,0.348-2.258,0.521-3.521,0.521c-1.658,0-3.148-0.278-4.476-0.835c-1.326-0.556-2.454-1.349-3.382-2.381
		c-0.927-1.031-1.643-2.277-2.146-3.738c-0.505-1.46-0.757-3.093-0.757-4.9s0.255-3.443,0.765-4.903
		c0.511-1.461,1.23-2.702,2.164-3.729c0.933-1.025,2.063-1.816,3.391-2.373c1.326-0.556,2.808-0.834,4.44-0.834
		c1.184,0,2.302,0.18,3.355,0.538c1.054,0.36,2,0.871,2.834,1.53c0.835,0.661,1.535,1.46,2.103,2.399
		c0.567,0.938,0.95,1.98,1.147,3.13H66.272z"/>
	<path fill="#222220" d="M80.063,121.316c1.022,0,1.945,0.168,2.769,0.506c0.825,0.338,1.527,0.826,2.107,1.468
		c0.581,0.64,1.027,1.421,1.34,2.345c0.313,0.922,0.469,1.971,0.469,3.142c0,1.181-0.158,2.231-0.477,3.155
		c-0.317,0.923-0.77,1.705-1.354,2.345c-0.586,0.641-1.288,1.128-2.107,1.46c-0.817,0.332-1.733,0.498-2.746,0.498
		c-0.993,0-1.898-0.166-2.718-0.498c-0.818-0.332-1.522-0.815-2.113-1.445s-1.048-1.408-1.37-2.337
		c-0.322-0.928-0.483-1.987-0.483-3.178c0-1.171,0.158-2.222,0.477-3.15c0.317-0.928,0.769-1.709,1.354-2.345
		s1.291-1.121,2.114-1.459C78.147,121.484,79.06,121.316,80.063,121.316z M80.063,134.24c0.595,0,1.142-0.114,1.638-0.344
		c0.497-0.229,0.924-0.57,1.28-1.026c0.357-0.456,0.635-1.027,0.834-1.712c0.199-0.686,0.298-1.479,0.298-2.382
		c0-0.904-0.099-1.698-0.298-2.383c-0.199-0.686-0.477-1.256-0.834-1.713c-0.356-0.456-0.783-0.799-1.28-1.026
		c-0.496-0.229-1.043-0.342-1.638-0.342c-0.605,0-1.155,0.113-1.652,0.342c-0.496,0.228-0.923,0.57-1.28,1.026
		c-0.357,0.457-0.636,1.027-0.833,1.713c-0.199,0.685-0.3,1.479-0.3,2.383c0,0.902,0.101,1.696,0.3,2.382
		c0.197,0.685,0.476,1.256,0.833,1.712s0.784,0.798,1.28,1.026C78.907,134.126,79.457,134.24,80.063,134.24z"/>
	<path fill="#222220" d="M92.093,135.892h-2.516v-19.652h2.516V135.892z"/>
	<path fill="#222220" d="M101.86,136.234c-1.034,0-1.977-0.166-2.829-0.498c-0.854-0.332-1.585-0.819-2.196-1.46
		c-0.61-0.64-1.084-1.422-1.422-2.345c-0.338-0.924-0.507-1.975-0.507-3.155c0-1.161,0.164-2.202,0.491-3.12
		c0.328-0.917,0.784-1.699,1.37-2.344c0.585-0.646,1.29-1.14,2.115-1.483c0.823-0.342,1.727-0.513,2.709-0.513
		c1.021,0,1.945,0.168,2.769,0.506c0.824,0.338,1.527,0.826,2.106,1.468c0.582,0.64,1.028,1.421,1.341,2.345
		c0.313,0.922,0.469,1.971,0.469,3.142v0.61h-10.72c0.061,0.823,0.206,1.538,0.44,2.143c0.231,0.606,0.54,1.11,0.922,1.512
		c0.382,0.402,0.821,0.702,1.318,0.901c0.496,0.197,1.037,0.298,1.623,0.298c0.417,0,0.833-0.058,1.25-0.171
		c0.417-0.114,0.791-0.281,1.123-0.5c0.333-0.218,0.604-0.489,0.813-0.812c0.209-0.321,0.317-0.691,0.327-1.108h2.65
		c-0.11,0.734-0.341,1.386-0.692,1.958c-0.353,0.57-0.799,1.049-1.34,1.437c-0.541,0.387-1.164,0.683-1.869,0.886
		S102.664,136.234,101.86,136.234z M105.597,127.391c-0.199-1.351-0.658-2.366-1.377-3.053c-0.72-0.684-1.597-1.025-2.628-1.025
		c-0.507,0-0.982,0.083-1.43,0.253c-0.446,0.168-0.843,0.421-1.19,0.759c-0.348,0.337-0.64,0.761-0.879,1.272
		c-0.238,0.512-0.407,1.108-0.507,1.794H105.597z"/>
	<path fill="#222220" d="M122.644,134.791c0,4.585-2.065,6.878-6.194,6.878c-0.893,0-1.696-0.101-2.411-0.298
		c-0.715-0.198-1.322-0.483-1.823-0.856c-0.502-0.371-0.886-0.826-1.154-1.361c-0.269-0.537-0.401-1.142-0.401-1.817h2.619
		c0,1.568,1.032,2.353,3.098,2.353c0.604,0,1.141-0.072,1.607-0.216c0.466-0.145,0.858-0.4,1.177-0.768
		c0.316-0.367,0.558-0.857,0.722-1.473c0.164-0.616,0.246-1.395,0.246-2.338v-0.686c-1.151,1.351-2.508,2.025-4.065,2.025
		c-0.952,0-1.794-0.177-2.523-0.528c-0.729-0.353-1.345-0.849-1.846-1.488c-0.502-0.642-0.879-1.413-1.132-2.315
		c-0.253-0.904-0.38-1.906-0.38-3.008c0-1.171,0.154-2.226,0.462-3.164c0.308-0.938,0.731-1.734,1.272-2.39
		c0.541-0.654,1.177-1.155,1.906-1.503c0.729-0.348,1.521-0.521,2.374-0.521c0.774,0,1.486,0.121,2.138,0.364
		c0.649,0.243,1.247,0.604,1.794,1.079v-1.086h2.516V134.791z M120.128,131.782v-6.744c-1.132-1.15-2.388-1.726-3.768-1.726
		c-1.082,0-1.945,0.463-2.591,1.392c-0.646,0.928-0.968,2.325-0.968,4.19c0,1.758,0.306,3.087,0.916,3.989
		c0.611,0.904,1.456,1.356,2.538,1.356c0.705,0,1.38-0.202,2.025-0.604C118.926,133.234,119.541,132.617,120.128,131.782z"/>
	<path fill="#222220" d="M128.896,135.892h-2.517v-14.218h2.517V135.892z"/>
	<path fill="#222220" d="M138.396,121.316c1.022,0,1.946,0.168,2.77,0.506c0.824,0.338,1.526,0.826,2.106,1.468
		c0.581,0.64,1.027,1.421,1.341,2.345c0.313,0.922,0.469,1.971,0.469,3.142c0,1.181-0.159,2.231-0.478,3.155
		c-0.316,0.923-0.769,1.705-1.354,2.345c-0.585,0.641-1.287,1.128-2.106,1.46c-0.818,0.332-1.734,0.498-2.747,0.498
		c-0.993,0-1.898-0.166-2.717-0.498c-0.819-0.332-1.523-0.815-2.114-1.445s-1.047-1.408-1.37-2.337
		c-0.322-0.928-0.483-1.987-0.483-3.178c0-1.171,0.158-2.222,0.477-3.15c0.317-0.928,0.77-1.709,1.354-2.345
		c0.586-0.636,1.291-1.121,2.114-1.459C136.48,121.484,137.393,121.316,138.396,121.316z M138.396,134.24
		c0.596,0,1.142-0.114,1.639-0.344c0.496-0.229,0.923-0.57,1.279-1.026c0.357-0.456,0.636-1.027,0.834-1.712
		c0.199-0.686,0.298-1.479,0.298-2.382c0-0.904-0.099-1.698-0.298-2.383c-0.198-0.686-0.477-1.256-0.834-1.713
		c-0.356-0.456-0.783-0.799-1.279-1.026c-0.497-0.229-1.043-0.342-1.639-0.342c-0.604,0-1.155,0.113-1.652,0.342
		c-0.496,0.228-0.923,0.57-1.28,1.026c-0.357,0.457-0.636,1.027-0.833,1.713c-0.199,0.685-0.299,1.479-0.299,2.383
		c0,0.902,0.1,1.696,0.299,2.382c0.197,0.685,0.476,1.256,0.833,1.712s0.784,0.798,1.28,1.026
		C137.24,134.126,137.791,134.24,138.396,134.24z"/>
</g>
<circle fill-rule="evenodd" clip-rule="evenodd" fill="#222220" cx="45.578" cy="118.838" r="1.257"/>
<circle fill-rule="evenodd" clip-rule="evenodd" fill="#222220" cx="127.638" cy="118.838" r="1.257"/>
</svg>
